<mxfile host="app.diagrams.net" modified="2020-10-27T10:34:49.464Z" agent="5.0 (Windows)" etag="yohc37n1F-vigb0k7h8c" version="13.8.3" type="github">
  <diagram id="o-SbbkivNZcEn2yXoJwa" name="Page-1">
    <mxGraphModel dx="868" dy="451" grid="1" gridSize="10" guides="1" tooltips="1" connect="1" arrows="1" fold="1" page="1" pageScale="1" pageWidth="827" pageHeight="1169" math="0" shadow="0">
      <root>
        <mxCell id="0" />
        <mxCell id="1" parent="0" />
        <mxCell id="52pVXYkGvgTmjJyz-R8d-6" value="" style="edgeStyle=orthogonalEdgeStyle;rounded=0;orthogonalLoop=1;jettySize=auto;html=1;" edge="1" parent="1" source="52pVXYkGvgTmjJyz-R8d-1" target="52pVXYkGvgTmjJyz-R8d-5">
          <mxGeometry relative="1" as="geometry" />
        </mxCell>
        <mxCell id="52pVXYkGvgTmjJyz-R8d-1" value="Start" style="ellipse;whiteSpace=wrap;html=1;fillColor=#cdeb8b;strokeColor=#36393d;" vertex="1" parent="1">
          <mxGeometry x="320" y="20" width="110" height="40" as="geometry" />
        </mxCell>
        <mxCell id="52pVXYkGvgTmjJyz-R8d-8" value="" style="edgeStyle=orthogonalEdgeStyle;rounded=0;orthogonalLoop=1;jettySize=auto;html=1;" edge="1" parent="1" source="52pVXYkGvgTmjJyz-R8d-5" target="52pVXYkGvgTmjJyz-R8d-7">
          <mxGeometry relative="1" as="geometry" />
        </mxCell>
        <mxCell id="52pVXYkGvgTmjJyz-R8d-9" value="yes" style="edgeLabel;html=1;align=center;verticalAlign=middle;resizable=0;points=[];" vertex="1" connectable="0" parent="52pVXYkGvgTmjJyz-R8d-8">
          <mxGeometry x="-0.2381" y="1" relative="1" as="geometry">
            <mxPoint as="offset" />
          </mxGeometry>
        </mxCell>
        <mxCell id="52pVXYkGvgTmjJyz-R8d-5" value="Did you choose a restaurant?" style="rhombus;whiteSpace=wrap;html=1;strokeColor=#82b366;fillColor=#d5e8d4;" vertex="1" parent="1">
          <mxGeometry x="322.5" y="100" width="105" height="110" as="geometry" />
        </mxCell>
        <mxCell id="52pVXYkGvgTmjJyz-R8d-15" value="" style="edgeStyle=orthogonalEdgeStyle;rounded=0;orthogonalLoop=1;jettySize=auto;html=1;" edge="1" parent="1" source="52pVXYkGvgTmjJyz-R8d-7" target="52pVXYkGvgTmjJyz-R8d-14">
          <mxGeometry relative="1" as="geometry" />
        </mxCell>
        <mxCell id="52pVXYkGvgTmjJyz-R8d-7" value="&lt;div&gt;Step into the restaurant&lt;/div&gt;" style="whiteSpace=wrap;html=1;strokeColor=#d6b656;fillColor=#fff2cc;" vertex="1" parent="1">
          <mxGeometry x="315" y="270" width="120" height="60" as="geometry" />
        </mxCell>
        <mxCell id="52pVXYkGvgTmjJyz-R8d-11" value="" style="edgeStyle=orthogonalEdgeStyle;rounded=0;orthogonalLoop=1;jettySize=auto;html=1;" edge="1" parent="1" source="52pVXYkGvgTmjJyz-R8d-10" target="52pVXYkGvgTmjJyz-R8d-5">
          <mxGeometry relative="1" as="geometry" />
        </mxCell>
        <mxCell id="52pVXYkGvgTmjJyz-R8d-10" value="Research restaurants online" style="rounded=0;whiteSpace=wrap;html=1;fillColor=#fff2cc;strokeColor=#d6b656;" vertex="1" parent="1">
          <mxGeometry x="540" y="125" width="120" height="60" as="geometry" />
        </mxCell>
        <mxCell id="52pVXYkGvgTmjJyz-R8d-12" value="" style="endArrow=classic;html=1;exitX=0.5;exitY=1;exitDx=0;exitDy=0;" edge="1" parent="1" source="52pVXYkGvgTmjJyz-R8d-5">
          <mxGeometry width="50" height="50" relative="1" as="geometry">
            <mxPoint x="380" y="210" as="sourcePoint" />
            <mxPoint x="600" y="190" as="targetPoint" />
            <Array as="points">
              <mxPoint x="440" y="210" />
              <mxPoint x="600" y="210" />
              <mxPoint x="600" y="210" />
              <mxPoint x="600" y="190" />
            </Array>
          </mxGeometry>
        </mxCell>
        <mxCell id="52pVXYkGvgTmjJyz-R8d-13" value="&lt;div&gt;no&lt;/div&gt;" style="edgeLabel;html=1;align=center;verticalAlign=middle;resizable=0;points=[];" vertex="1" connectable="0" parent="52pVXYkGvgTmjJyz-R8d-12">
          <mxGeometry x="-0.0578" y="-2" relative="1" as="geometry">
            <mxPoint y="-2" as="offset" />
          </mxGeometry>
        </mxCell>
        <mxCell id="52pVXYkGvgTmjJyz-R8d-26" value="" style="edgeStyle=orthogonalEdgeStyle;rounded=0;orthogonalLoop=1;jettySize=auto;html=1;" edge="1" parent="1" source="52pVXYkGvgTmjJyz-R8d-14" target="52pVXYkGvgTmjJyz-R8d-25">
          <mxGeometry relative="1" as="geometry" />
        </mxCell>
        <mxCell id="52pVXYkGvgTmjJyz-R8d-14" value="&lt;div&gt;Sit down at a table&lt;/div&gt;" style="whiteSpace=wrap;html=1;strokeColor=#d6b656;fillColor=#fff2cc;" vertex="1" parent="1">
          <mxGeometry x="315" y="370" width="120" height="60" as="geometry" />
        </mxCell>
        <mxCell id="52pVXYkGvgTmjJyz-R8d-28" value="yes" style="edgeStyle=orthogonalEdgeStyle;rounded=0;orthogonalLoop=1;jettySize=auto;html=1;" edge="1" parent="1" source="52pVXYkGvgTmjJyz-R8d-25" target="52pVXYkGvgTmjJyz-R8d-27">
          <mxGeometry relative="1" as="geometry" />
        </mxCell>
        <mxCell id="52pVXYkGvgTmjJyz-R8d-30" value="no" style="edgeStyle=orthogonalEdgeStyle;rounded=0;orthogonalLoop=1;jettySize=auto;html=1;" edge="1" parent="1" source="52pVXYkGvgTmjJyz-R8d-25" target="52pVXYkGvgTmjJyz-R8d-29">
          <mxGeometry relative="1" as="geometry" />
        </mxCell>
        <mxCell id="52pVXYkGvgTmjJyz-R8d-25" value="Is the waitress at the table?" style="rhombus;whiteSpace=wrap;html=1;strokeColor=#82b366;fillColor=#d5e8d4;" vertex="1" parent="1">
          <mxGeometry x="322.5" y="470" width="105" height="100" as="geometry" />
        </mxCell>
        <mxCell id="52pVXYkGvgTmjJyz-R8d-33" value="" style="edgeStyle=orthogonalEdgeStyle;rounded=0;orthogonalLoop=1;jettySize=auto;html=1;" edge="1" parent="1" source="52pVXYkGvgTmjJyz-R8d-27" target="52pVXYkGvgTmjJyz-R8d-32">
          <mxGeometry relative="1" as="geometry" />
        </mxCell>
        <mxCell id="52pVXYkGvgTmjJyz-R8d-27" value="Ask for the menu" style="whiteSpace=wrap;html=1;strokeColor=#d6b656;fillColor=#fff2cc;" vertex="1" parent="1">
          <mxGeometry x="315" y="610" width="120" height="60" as="geometry" />
        </mxCell>
        <mxCell id="52pVXYkGvgTmjJyz-R8d-29" value="Wait until waitress arrives" style="whiteSpace=wrap;html=1;strokeColor=#d6b656;fillColor=#fff2cc;" vertex="1" parent="1">
          <mxGeometry x="500" y="490" width="120" height="60" as="geometry" />
        </mxCell>
        <mxCell id="52pVXYkGvgTmjJyz-R8d-31" value="" style="endArrow=classic;html=1;exitX=0.5;exitY=1;exitDx=0;exitDy=0;entryX=1;entryY=0.5;entryDx=0;entryDy=0;" edge="1" parent="1" source="52pVXYkGvgTmjJyz-R8d-29" target="52pVXYkGvgTmjJyz-R8d-27">
          <mxGeometry width="50" height="50" relative="1" as="geometry">
            <mxPoint x="390" y="590" as="sourcePoint" />
            <mxPoint x="560" y="640" as="targetPoint" />
            <Array as="points">
              <mxPoint x="560" y="640" />
              <mxPoint x="450" y="640" />
            </Array>
          </mxGeometry>
        </mxCell>
        <mxCell id="52pVXYkGvgTmjJyz-R8d-35" value="" style="edgeStyle=orthogonalEdgeStyle;rounded=0;orthogonalLoop=1;jettySize=auto;html=1;" edge="1" parent="1" source="52pVXYkGvgTmjJyz-R8d-32" target="52pVXYkGvgTmjJyz-R8d-34">
          <mxGeometry relative="1" as="geometry" />
        </mxCell>
        <mxCell id="52pVXYkGvgTmjJyz-R8d-32" value="Receive menu" style="shape=document;whiteSpace=wrap;html=1;boundedLbl=1;strokeColor=#10739e;fillColor=#b1ddf0;" vertex="1" parent="1">
          <mxGeometry x="315" y="710" width="120" height="70" as="geometry" />
        </mxCell>
        <mxCell id="52pVXYkGvgTmjJyz-R8d-37" value="" style="edgeStyle=orthogonalEdgeStyle;rounded=0;orthogonalLoop=1;jettySize=auto;html=1;" edge="1" parent="1" source="52pVXYkGvgTmjJyz-R8d-34" target="52pVXYkGvgTmjJyz-R8d-36">
          <mxGeometry relative="1" as="geometry" />
        </mxCell>
        <mxCell id="52pVXYkGvgTmjJyz-R8d-34" value="Look at menu" style="whiteSpace=wrap;html=1;strokeColor=#d6b656;fillColor=#fff2cc;" vertex="1" parent="1">
          <mxGeometry x="315" y="810" width="120" height="60" as="geometry" />
        </mxCell>
        <mxCell id="52pVXYkGvgTmjJyz-R8d-39" value="" style="edgeStyle=orthogonalEdgeStyle;rounded=0;orthogonalLoop=1;jettySize=auto;html=1;" edge="1" parent="1" source="52pVXYkGvgTmjJyz-R8d-36">
          <mxGeometry relative="1" as="geometry">
            <mxPoint x="375" y="1010" as="targetPoint" />
          </mxGeometry>
        </mxCell>
        <mxCell id="52pVXYkGvgTmjJyz-R8d-36" value="&lt;div&gt;Choose a meal and/or a drink&lt;/div&gt;" style="whiteSpace=wrap;html=1;strokeColor=#d6b656;fillColor=#fff2cc;" vertex="1" parent="1">
          <mxGeometry x="315" y="910" width="120" height="60" as="geometry" />
        </mxCell>
        <mxCell id="52pVXYkGvgTmjJyz-R8d-41" value="" style="edgeStyle=orthogonalEdgeStyle;rounded=0;orthogonalLoop=1;jettySize=auto;html=1;" edge="1" parent="1">
          <mxGeometry relative="1" as="geometry">
            <mxPoint x="375" y="1070" as="sourcePoint" />
            <mxPoint x="375" y="1109" as="targetPoint" />
          </mxGeometry>
        </mxCell>
        <mxCell id="52pVXYkGvgTmjJyz-R8d-43" value="" style="edgeStyle=orthogonalEdgeStyle;rounded=0;orthogonalLoop=1;jettySize=auto;html=1;" edge="1" parent="1" target="52pVXYkGvgTmjJyz-R8d-42">
          <mxGeometry relative="1" as="geometry">
            <mxPoint x="375" y="1169" as="sourcePoint" />
          </mxGeometry>
        </mxCell>
        <mxCell id="52pVXYkGvgTmjJyz-R8d-45" value="" style="edgeStyle=orthogonalEdgeStyle;rounded=0;orthogonalLoop=1;jettySize=auto;html=1;" edge="1" parent="1" source="52pVXYkGvgTmjJyz-R8d-42" target="52pVXYkGvgTmjJyz-R8d-44">
          <mxGeometry relative="1" as="geometry" />
        </mxCell>
        <mxCell id="52pVXYkGvgTmjJyz-R8d-42" value="Consume food and/or drinks" style="whiteSpace=wrap;html=1;strokeColor=#d6b656;fillColor=#fff2cc;" vertex="1" parent="1">
          <mxGeometry x="315" y="1210" width="120" height="60" as="geometry" />
        </mxCell>
        <mxCell id="52pVXYkGvgTmjJyz-R8d-48" value="no" style="edgeStyle=orthogonalEdgeStyle;rounded=0;orthogonalLoop=1;jettySize=auto;html=1;" edge="1" parent="1" source="52pVXYkGvgTmjJyz-R8d-44" target="52pVXYkGvgTmjJyz-R8d-47">
          <mxGeometry relative="1" as="geometry" />
        </mxCell>
        <mxCell id="52pVXYkGvgTmjJyz-R8d-44" value="Are you still hungry/thirsty?" style="rhombus;whiteSpace=wrap;html=1;strokeColor=#82b366;fillColor=#d5e8d4;" vertex="1" parent="1">
          <mxGeometry x="322.5" y="1310" width="105" height="100" as="geometry" />
        </mxCell>
        <mxCell id="52pVXYkGvgTmjJyz-R8d-46" value="yes" style="endArrow=classic;html=1;" edge="1" parent="1">
          <mxGeometry x="-0.9077" width="50" height="50" relative="1" as="geometry">
            <mxPoint x="320" y="1360" as="sourcePoint" />
            <mxPoint x="310" y="940" as="targetPoint" />
            <Array as="points">
              <mxPoint x="290" y="1360" />
              <mxPoint x="260" y="1360" />
              <mxPoint x="260" y="940" />
              <mxPoint x="320" y="940" />
              <mxPoint x="260" y="940" />
              <mxPoint x="310" y="940" />
            </Array>
            <mxPoint as="offset" />
          </mxGeometry>
        </mxCell>
        <mxCell id="52pVXYkGvgTmjJyz-R8d-50" value="" style="edgeStyle=orthogonalEdgeStyle;rounded=0;orthogonalLoop=1;jettySize=auto;html=1;" edge="1" parent="1" source="52pVXYkGvgTmjJyz-R8d-47" target="52pVXYkGvgTmjJyz-R8d-49">
          <mxGeometry relative="1" as="geometry" />
        </mxCell>
        <mxCell id="52pVXYkGvgTmjJyz-R8d-47" value="Ask for bill" style="whiteSpace=wrap;html=1;strokeColor=#d6b656;fillColor=#fff2cc;" vertex="1" parent="1">
          <mxGeometry x="315" y="1450" width="120" height="50" as="geometry" />
        </mxCell>
        <mxCell id="52pVXYkGvgTmjJyz-R8d-52" value="" style="edgeStyle=orthogonalEdgeStyle;rounded=0;orthogonalLoop=1;jettySize=auto;html=1;" edge="1" parent="1" source="52pVXYkGvgTmjJyz-R8d-49" target="52pVXYkGvgTmjJyz-R8d-51">
          <mxGeometry relative="1" as="geometry" />
        </mxCell>
        <mxCell id="52pVXYkGvgTmjJyz-R8d-49" value="&lt;div&gt;Pay for your food/drink&lt;/div&gt;" style="whiteSpace=wrap;html=1;strokeColor=#d6b656;fillColor=#fff2cc;" vertex="1" parent="1">
          <mxGeometry x="315" y="1530" width="120" height="60" as="geometry" />
        </mxCell>
        <mxCell id="52pVXYkGvgTmjJyz-R8d-54" value="" style="edgeStyle=orthogonalEdgeStyle;rounded=0;orthogonalLoop=1;jettySize=auto;html=1;" edge="1" parent="1" source="52pVXYkGvgTmjJyz-R8d-51" target="52pVXYkGvgTmjJyz-R8d-53">
          <mxGeometry relative="1" as="geometry" />
        </mxCell>
        <mxCell id="52pVXYkGvgTmjJyz-R8d-51" value="&lt;div&gt;Step out of restaurant and go home&lt;/div&gt;" style="whiteSpace=wrap;html=1;strokeColor=#d6b656;fillColor=#fff2cc;" vertex="1" parent="1">
          <mxGeometry x="315" y="1630" width="120" height="60" as="geometry" />
        </mxCell>
        <mxCell id="52pVXYkGvgTmjJyz-R8d-53" value="End" style="ellipse;whiteSpace=wrap;html=1;strokeColor=#b85450;fillColor=#f8cecc;" vertex="1" parent="1">
          <mxGeometry x="315" y="1714" width="120" height="36" as="geometry" />
        </mxCell>
        <mxCell id="52pVXYkGvgTmjJyz-R8d-55" value="Give order to waitress" style="shape=parallelogram;perimeter=parallelogramPerimeter;whiteSpace=wrap;html=1;fixedSize=1;fillColor=#f0a30a;strokeColor=#BD7000;fontColor=#ffffff;" vertex="1" parent="1">
          <mxGeometry x="308" y="1010" width="120" height="60" as="geometry" />
        </mxCell>
        <mxCell id="52pVXYkGvgTmjJyz-R8d-56" value="&lt;div&gt;Wait for meal and/or drinks to arrive&lt;/div&gt;" style="shape=delay;whiteSpace=wrap;html=1;fillColor=#f5f5f5;strokeColor=#666666;fontColor=#333333;" vertex="1" parent="1">
          <mxGeometry x="310" y="1110" width="120" height="50" as="geometry" />
        </mxCell>
      </root>
    </mxGraphModel>
  </diagram>
</mxfile>
